<svg width="0" height="0" class="hidden">
  <symbol fill="none" xmlns="http://www.w3.org/2000/svg" viewBox="0 0 24 24" id="arrow-long-left">
    <path fill-rule="evenodd" clip-rule="evenodd" d="M7.27983 7.71995C7.42028 7.86058 7.49917 8.0512 7.49917 8.24995C7.49917 8.4487 7.42028 8.63932 7.27983 8.77995L4.80983 11.25H20.9998C21.1987 11.25 21.3895 11.329 21.5302 11.4696C21.6708 11.6103 21.7498 11.801 21.7498 12C21.7498 12.1989 21.6708 12.3896 21.5302 12.5303C21.3895 12.6709 21.1987 12.75 20.9998 12.75H4.80983L7.27983 15.22C7.35352 15.2886 7.41262 15.3714 7.45361 15.4634C7.4946 15.5554 7.51664 15.6547 7.51842 15.7554C7.5202 15.8561 7.50167 15.9562 7.46395 16.0495C7.42623 16.1429 7.37009 16.2278 7.29887 16.299C7.22765 16.3702 7.14281 16.4264 7.04943 16.4641C6.95604 16.5018 6.85601 16.5203 6.75531 16.5185C6.6546 16.5168 6.55529 16.4947 6.46329 16.4537C6.37129 16.4127 6.28849 16.3536 6.21983 16.28L2.46983 12.53C2.32938 12.3893 2.25049 12.1987 2.25049 12C2.25049 11.8012 2.32938 11.6106 2.46983 11.47L6.21983 7.71995C6.36045 7.5795 6.55108 7.50061 6.74983 7.50061C6.94858 7.50061 7.1392 7.5795 7.27983 7.71995Z" fill="#2F2F2F"></path>
  </symbol>
  <symbol fill="none" xmlns="http://www.w3.org/2000/svg" viewBox="0 0 24 24" id="arrow-right-on-rectangle">
    <path d="M15.75 9V5.25C15.75 4.65326 15.5129 4.08097 15.091 3.65901C14.669 3.23705 14.0967 3 13.5 3H7.5C6.90326 3 6.33097 3.23705 5.90901 3.65901C5.48705 4.08097 5.25 4.65326 5.25 5.25V18.75C5.25 19.3467 5.48705 19.919 5.90901 20.341C6.33097 20.7629 6.90326 21 7.5 21H13.5C14.0967 21 14.669 20.7629 15.091 20.341C15.5129 19.919 15.75 19.3467 15.75 18.75V15M18.75 15L21.75 12M21.75 12L18.75 9M21.75 12H9" stroke="#2F2F2F" stroke-linecap="round" stroke-linejoin="round"></path>
  </symbol>
  <symbol fill="none" xmlns="http://www.w3.org/2000/svg" viewBox="0 0 24 24" id="arrow-up-tray">
    <path d="M3 16.5V18.75C3 19.3467 3.23705 19.919 3.65901 20.341C4.08097 20.7629 4.65326 21 5.25 21H18.75C19.3467 21 19.919 20.7629 20.341 20.341C20.7629 19.919 21 19.3467 21 18.75V16.5M7.5 7.5L12 3M12 3L16.5 7.5M12 3V16.5" stroke="#2F2F2F" stroke-linecap="round" stroke-linejoin="round"></path>
  </symbol>
  <symbol fill="none" xmlns="http://www.w3.org/2000/svg" viewBox="0 0 40 40" id="calendar-days">
    <path d="M11.25 5V8.75M28.75 5V8.75M5 31.25V12.5C5 11.5054 5.39509 10.5516 6.09835 9.84835C6.80161 9.14509 7.75544 8.75 8.75 8.75H31.25C32.2446 8.75 33.1984 9.14509 33.9016 9.84835C34.6049 10.5516 35 11.5054 35 12.5V31.25M5 31.25C5 32.2446 5.39509 33.1984 6.09835 33.9016C6.80161 34.6049 7.75544 35 8.75 35H31.25C32.2446 35 33.1984 34.6049 33.9016 33.9016C34.6049 33.1984 35 32.2446 35 31.25M5 31.25V18.75C5 17.7554 5.39509 16.8016 6.09835 16.0983C6.80161 15.3951 7.75544 15 8.75 15H31.25C32.2446 15 33.1984 15.3951 33.9016 16.0983C34.6049 16.8016 35 17.7554 35 18.75V31.25M20 21.25H20.0133V21.2633H20V21.25ZM20 25H20.0133V25.0133H20V25ZM20 28.75H20.0133V28.7633H20V28.75ZM16.25 25H16.2633V25.0133H16.25V25ZM16.25 28.75H16.2633V28.7633H16.25V28.75ZM12.5 25H12.5133V25.0133H12.5V25ZM12.5 28.75H12.5133V28.7633H12.5V28.75ZM23.75 21.25H23.7633V21.2633H23.75V21.25ZM23.75 25H23.7633V25.0133H23.75V25ZM23.75 28.75H23.7633V28.7633H23.75V28.75ZM27.5 21.25H27.5133V21.2633H27.5V21.25ZM27.5 25H27.5133V25.0133H27.5V25Z" stroke="#407BFF" stroke-width="2" stroke-linecap="round" stroke-linejoin="round"></path>
  </symbol>
  <symbol fill="none" xmlns="http://www.w3.org/2000/svg" viewBox="0 0 24 24" id="eye">
    <path d="M2.03613 12.322C1.96712 12.1146 1.96712 11.8904 2.03613 11.683C3.42313 7.51 7.36013 4.5 12.0001 4.5C16.6381 4.5 20.5731 7.507 21.9631 11.678C22.0331 11.885 22.0331 12.109 21.9631 12.317C20.5771 16.49 16.6401 19.5 12.0001 19.5C7.36213 19.5 3.42613 16.493 2.03613 12.322Z" stroke="#2F2F2F" stroke-linecap="round" stroke-linejoin="round"></path>
    <path d="M15 12C15 12.7956 14.6839 13.5587 14.1213 14.1213C13.5587 14.6839 12.7956 15 12 15C11.2044 15 10.4413 14.6839 9.87868 14.1213C9.31607 13.5587 9 12.7956 9 12C9 11.2044 9.31607 10.4413 9.87868 9.87868C10.4413 9.31607 11.2044 9 12 9C12.7956 9 13.5587 9.31607 14.1213 9.87868C14.6839 10.4413 15 11.2044 15 12Z" stroke="#2F2F2F" stroke-linecap="round" stroke-linejoin="round"></path>
  </symbol>
  <symbol fill="none" xmlns="http://www.w3.org/2000/svg" viewBox="0 0 24 24" id="chevron-double-up">
    <path fill-rule="evenodd" clip-rule="evenodd" d="M12.5298 16.28C12.3892 16.4205 12.1986 16.4994 11.9998 16.4994C11.8011 16.4994 11.6105 16.4205 11.4698 16.28L3.96985 8.78003C3.83737 8.63786 3.76524 8.44981 3.76867 8.25551C3.7721 8.06121 3.85081 7.87582 3.98822 7.73841C4.12564 7.601 4.31102 7.52228 4.50532 7.51886C4.69963 7.51543 4.88767 7.58755 5.02985 7.72003L11.9998 14.69L18.9698 7.72003C19.0385 7.64634 19.1213 7.58724 19.2133 7.54625C19.3053 7.50526 19.4046 7.48322 19.5053 7.48144C19.606 7.47966 19.7061 7.49819 19.7994 7.53591C19.8928 7.57363 19.9777 7.62977 20.0489 7.70099C20.1201 7.77221 20.1762 7.85705 20.214 7.95043C20.2517 8.04382 20.2702 8.14385 20.2684 8.24455C20.2667 8.34526 20.2446 8.44457 20.2036 8.53657C20.1626 8.62857 20.1035 8.71137 20.0298 8.78003L12.5298 16.28Z" fill="#2F2F2F"></path>
  </symbol>
  <symbol fill="none" xmlns="http://www.w3.org/2000/svg" viewBox="0 0 24 24" id="user">
    <g clip-path="url(#clip0_139_386)">
      <circle cx="12" cy="12" r="11.5" stroke="#2F2F2F"></circle>
      <path d="M15.0004 7.07692C15.0004 7.89297 14.6843 8.6756 14.1216 9.25263C13.5589 9.82967 12.7958 10.1538 12 10.1538C11.2042 10.1538 10.4411 9.82967 9.8784 9.25263C9.31571 8.6756 8.9996 7.89297 8.9996 7.07692C8.9996 6.26087 9.31571 5.47824 9.8784 4.90121C10.4411 4.32417 11.2042 4 12 4C12.7958 4 13.5589 4.32417 14.1216 4.90121C14.6843 5.47824 15.0004 6.26087 15.0004 7.07692ZM6 18.6609C6.02571 17.0464 6.66916 15.507 7.79158 14.3746C8.914 13.2422 10.4255 12.6076 12 12.6076C13.5745 12.6076 15.086 13.2422 16.2084 14.3746C17.3308 15.507 17.9743 17.0464 18 18.6609C16.1177 19.5461 14.0708 20.0029 12 20C9.85891 20 7.82664 19.5208 6 18.6609Z" stroke="#2F2F2F" stroke-linecap="round" stroke-linejoin="round"></path>
    </g>
    <defs>
      <clipPath id="clip0_139_386">
        <rect width="24" height="24" fill="white"></rect>
      </clipPath>
    </defs>
  </symbol>
  <symbol fill="none" xmlns="http://www.w3.org/2000/svg" viewBox="0 0 24 24" id="cog-6-tooth">
    <path d="M9.59421 3.94C9.68421 3.398 10.1542 3 10.7042 3H13.2972C13.8472 3 14.3172 3.398 14.4072 3.94L14.6202 5.221C14.6832 5.595 14.9332 5.907 15.2652 6.091C15.3392 6.131 15.4122 6.174 15.4852 6.218C15.8092 6.414 16.2052 6.475 16.5602 6.342L17.7772 5.886C18.0266 5.79221 18.3012 5.78998 18.5521 5.87971C18.803 5.96945 19.0139 6.14531 19.1472 6.376L20.4432 8.623C20.5763 8.8537 20.6232 9.12413 20.5756 9.38617C20.5279 9.6482 20.3889 9.88485 20.1832 10.054L19.1802 10.881C18.8872 11.121 18.7422 11.494 18.7492 11.873C18.7508 11.958 18.7508 12.043 18.7492 12.128C18.7422 12.506 18.8872 12.878 19.1792 13.118L20.1842 13.946C20.6082 14.296 20.7182 14.9 20.4442 15.376L19.1462 17.623C19.0131 17.8536 18.8024 18.0296 18.5517 18.1195C18.301 18.2094 18.0266 18.2074 17.7772 18.114L16.5602 17.658C16.2052 17.525 15.8102 17.586 15.4842 17.782C15.4117 17.8261 15.3384 17.8688 15.2642 17.91C14.9332 18.093 14.6832 18.405 14.6202 18.779L14.4072 20.059C14.3172 20.602 13.8472 21 13.2972 21H10.7032C10.1532 21 9.68321 20.602 9.59321 20.06L9.38021 18.779C9.31821 18.405 9.06821 18.093 8.73621 17.909C8.66205 17.8681 8.58871 17.8258 8.51621 17.782C8.19121 17.586 7.79621 17.525 7.44021 17.658L6.22321 18.114C5.97393 18.2075 5.69957 18.2096 5.4489 18.1199C5.19824 18.0302 4.98752 17.8545 4.85421 17.624L3.55721 15.377C3.42415 15.1463 3.37725 14.8759 3.42486 14.6138C3.47247 14.3518 3.6115 14.1152 3.81721 13.946L4.82121 13.119C5.11321 12.879 5.25821 12.506 5.25121 12.127C5.24964 12.042 5.24964 11.957 5.25121 11.872C5.25821 11.494 5.11321 11.122 4.82121 10.882L3.81721 10.054C3.61175 9.88489 3.47288 9.64843 3.42528 9.38662C3.37768 9.12481 3.42442 8.8546 3.55721 8.624L4.85421 6.377C4.98739 6.14614 5.19822 5.97006 5.44912 5.88014C5.70002 5.79021 5.97469 5.79229 6.22421 5.886L7.44021 6.342C7.79621 6.475 8.19121 6.414 8.51621 6.218C8.58821 6.174 8.66221 6.131 8.73621 6.09C9.06821 5.907 9.31821 5.595 9.38021 5.221L9.59421 3.94Z" stroke="#2F2F2F" stroke-linecap="round" stroke-linejoin="round"></path>
    <path d="M15 12C15 12.7956 14.6839 13.5587 14.1213 14.1213C13.5587 14.6839 12.7956 15 12 15C11.2044 15 10.4413 14.6839 9.87868 14.1213C9.31607 13.5587 9 12.7956 9 12C9 11.2044 9.31607 10.4413 9.87868 9.87868C10.4413 9.31607 11.2044 9 12 9C12.7956 9 13.5587 9.31607 14.1213 9.87868C14.6839 10.4413 15 11.2044 15 12Z" stroke="#2F2F2F" stroke-linecap="round" stroke-linejoin="round"></path>
  </symbol>
  <symbol fill="none" xmlns="http://www.w3.org/2000/svg" viewBox="0 0 40 40" id="presentation-chart-bar">
    <path d="M6.25 5V23.75C6.25 24.7446 6.64509 25.6984 7.34835 26.4016C8.05161 27.1049 9.00544 27.5 10 27.5H13.75M6.25 5H3.75M6.25 5H33.75M13.75 27.5H26.25M13.75 27.5L12.0833 32.5M33.75 5H36.25M33.75 5V23.75C33.75 24.7446 33.3549 25.6984 32.6516 26.4016C31.9484 27.1049 30.9946 27.5 30 27.5H26.25M26.25 27.5L27.9167 32.5M12.0833 32.5H27.9167M12.0833 32.5L11.25 35M27.9167 32.5L28.75 35M15 18.75V21.25M20 15V21.25M25 11.25V21.25" stroke="#407BFF" stroke-width="2" stroke-linecap="round" stroke-linejoin="round"></path>
  </symbol>
  <symbol fill="none" xmlns="http://www.w3.org/2000/svg" viewBox="0 0 24 24" id="eye-slash">
    <path d="M3.98008 8.223C3.04454 9.32718 2.3479 10.6132 1.93408 12C3.22608 16.338 7.24408 19.5 12.0001 19.5C12.9931 19.5 13.9531 19.362 14.8631 19.105M6.22808 6.228C7.9407 5.09781 9.94816 4.49682 12.0001 4.5C16.7561 4.5 20.7731 7.662 22.0651 11.998C21.357 14.3673 19.8371 16.4115 17.7721 17.772M6.22808 6.228L3.00008 3M6.22808 6.228L9.87808 9.878M17.7721 17.772L21.0001 21M17.7721 17.772L14.1221 14.122C14.4007 13.8434 14.6217 13.5127 14.7725 13.1486C14.9232 12.7846 15.0008 12.3945 15.0008 12.0005C15.0008 11.6065 14.9232 11.2164 14.7725 10.8524C14.6217 10.4883 14.4007 10.1576 14.1221 9.879C13.8435 9.6004 13.5127 9.3794 13.1487 9.22863C12.7847 9.07785 12.3946 9.00025 12.0006 9.00025C11.6066 9.00025 11.2164 9.07785 10.8524 9.22863C10.4884 9.3794 10.1577 9.6004 9.87908 9.879M14.1211 14.121L9.88008 9.88" stroke="#2F2F2F" stroke-linecap="round" stroke-linejoin="round"></path>
  </symbol>
  <symbol fill="none" xmlns="http://www.w3.org/2000/svg" viewBox="0 0 24 24" id="pencil-square">
    <path d="M16.862 4.487L18.549 2.799C18.9007 2.44733 19.3777 2.24976 19.875 2.24976C20.3723 2.24976 20.8493 2.44733 21.201 2.799C21.5527 3.15068 21.7502 3.62766 21.7502 4.125C21.7502 4.62235 21.5527 5.09933 21.201 5.451L10.582 16.07C10.0533 16.5984 9.40137 16.9867 8.685 17.2L6 18L6.8 15.315C7.01328 14.5986 7.40163 13.9467 7.93 13.418L16.862 4.487ZM16.862 4.487L19.5 7.125M18 14V18.75C18 19.3467 17.7629 19.919 17.341 20.341C16.919 20.7629 16.3467 21 15.75 21H5.25C4.65326 21 4.08097 20.7629 3.65901 20.341C3.23705 19.919 3 19.3467 3 18.75V8.25C3 7.65327 3.23705 7.08097 3.65901 6.65901C4.08097 6.23706 4.65326 6 5.25 6H10" stroke="#2F2F2F" stroke-linecap="round" stroke-linejoin="round"></path>
  </symbol>
  <symbol fill="none" xmlns="http://www.w3.org/2000/svg" viewBox="0 0 24 24" id="trash">
    <path d="M14.74 9.00003L14.394 18M9.606 18L9.26 9.00003M19.228 5.79003C19.57 5.84203 19.91 5.89703 20.25 5.95603M19.228 5.79003L18.16 19.673C18.1164 20.2383 17.8611 20.7662 17.445 21.1513C17.029 21.5364 16.4829 21.7502 15.916 21.75H8.084C7.5171 21.7502 6.97102 21.5364 6.55498 21.1513C6.13894 20.7662 5.88359 20.2383 5.84 19.673L4.772 5.79003M19.228 5.79003C18.0739 5.61555 16.9138 5.48313 15.75 5.39303M4.772 5.79003C4.43 5.84103 4.09 5.89603 3.75 5.95503M4.772 5.79003C5.92613 5.61555 7.08623 5.48313 8.25 5.39303M15.75 5.39303V4.47703C15.75 3.29703 14.84 2.31303 13.66 2.27603C12.5536 2.24067 11.4464 2.24067 10.34 2.27603C9.16 2.31303 8.25 3.29803 8.25 4.47703V5.39303M15.75 5.39303C13.2537 5.20011 10.7463 5.20011 8.25 5.39303" stroke="#2F2F2F" stroke-linecap="round" stroke-linejoin="round"></path>
  </symbol>
  <symbol fill="none" xmlns="http://www.w3.org/2000/svg" viewBox="0 0 24 24" id="plus-small">
    <path d="M12 6V18M18 12H6" stroke="#2F2F2F" stroke-linecap="round" stroke-linejoin="round"></path>
  </symbol>
  <symbol fill="none" xmlns="http://www.w3.org/2000/svg" viewBox="0 0 40 40" id="wrench-screwdriver">
    <path d="M19.0333 25.2833L28.75 35C29.5833 35.8067 30.7003 36.2535 31.8601 36.2441C33.0199 36.2347 34.1295 35.7698 34.9497 34.9497C35.7698 34.1295 36.2347 33.0199 36.2441 31.8601C36.2535 30.7003 35.8067 29.5833 35 28.75L25.205 18.955M19.0333 25.2833L23.1933 20.2333C23.7217 19.5933 24.4267 19.19 25.2067 18.9567C26.1233 18.6833 27.145 18.6433 28.1117 18.7233C29.4147 18.8352 30.7244 18.6044 31.9107 18.0539C33.097 17.5033 34.1187 16.6521 34.8744 15.5847C35.6301 14.5173 36.0936 13.2708 36.2188 11.969C36.3441 10.6672 36.1267 9.35521 35.5883 8.16333L30.1283 13.625C29.2148 13.4138 28.379 12.9503 27.716 12.2873C27.0531 11.6243 26.5896 10.7885 26.3783 9.875L31.8383 4.415C30.6464 3.87661 29.3345 3.65924 28.0327 3.78447C26.7308 3.90971 25.4844 4.37318 24.417 5.12891C23.3496 5.88465 22.4984 6.90636 21.9478 8.09266C21.3972 9.27896 21.1664 10.5886 21.2783 11.8917C21.43 13.685 21.16 15.665 19.7717 16.8083L19.6017 16.95M19.0333 25.2833L11.275 34.705C10.899 35.1633 10.4312 35.5379 9.90165 35.8045C9.37215 36.0711 8.79268 36.2239 8.20055 36.2531C7.60842 36.2822 7.01674 36.1871 6.46361 35.9737C5.91048 35.7604 5.40814 35.4336 4.98894 35.0144C4.56973 34.5952 4.24294 34.0928 4.0296 33.5397C3.81627 32.9866 3.72111 32.3949 3.75025 31.8028C3.7794 31.2107 3.9322 30.6312 4.19882 30.1017C4.46544 29.5722 4.83998 29.1043 5.29833 28.7283L16.6933 19.345L9.84833 12.5H7.49999L3.75 6.25L6.24999 3.75L12.5 7.5V9.84833L19.6 16.9483L16.6917 19.3433M30.625 30.625L26.25 26.25M8.11166 31.875H8.12499V31.8883H8.11166V31.875Z" stroke="#407BFF" stroke-width="2" stroke-linecap="round" stroke-linejoin="round"></path>
  </symbol>
</svg>